<svg width="16" height="16" viewBox="0 0 16 16" fill="none" xmlns="http://www.w3.org/2000/svg">
<g clip-path="url(#clip0_49_7)">
<rect width="16" height="16" fill="#151515"/>
<path d="M7.34863 9.31975C7.34863 9.54631 7.31276 9.74456 7.24102 9.91448C7.16927 10.0806 7.07109 10.2222 6.94648 10.3393C6.82187 10.4563 6.6765 10.5526 6.51035 10.6281C6.34798 10.6999 6.17428 10.7565 5.98926 10.7981C5.80801 10.8358 5.62109 10.8623 5.42852 10.8774C5.23971 10.8925 5.05658 10.9 4.8791 10.9H2.15469V10.7358C2.33594 10.7358 2.47943 10.7244 2.58516 10.7018C2.69466 10.6753 2.77773 10.6319 2.83437 10.5715C2.89102 10.5073 2.92878 10.4205 2.94766 10.311C2.96654 10.1977 2.97598 10.0542 2.97598 9.88049V6.13088C2.97598 5.94963 2.96842 5.80426 2.95332 5.69475C2.93822 5.58147 2.90234 5.49273 2.8457 5.42854C2.78906 5.36435 2.70599 5.32092 2.59648 5.29827C2.48698 5.27561 2.33971 5.26428 2.15469 5.26428V5.11135H4.64687C4.82435 5.11135 5.00749 5.1189 5.19629 5.13401C5.38509 5.14911 5.57012 5.17743 5.75137 5.21897C5.93262 5.25673 6.10443 5.31148 6.2668 5.38323C6.42917 5.45497 6.57077 5.54937 6.6916 5.66643C6.81621 5.77971 6.91439 5.91943 6.98613 6.08557C7.05788 6.24794 7.09375 6.44052 7.09375 6.66331C7.09375 6.82568 7.06543 6.97483 7.00879 7.11077C6.95592 7.2467 6.88229 7.36943 6.78789 7.47893C6.69349 7.58466 6.5821 7.67717 6.45371 7.75647C6.32533 7.83577 6.1875 7.89807 6.04023 7.94338C6.23281 7.97737 6.4084 8.03023 6.56699 8.10198C6.72559 8.16995 6.86341 8.26057 6.98047 8.37385C7.09753 8.48336 7.18815 8.61741 7.25234 8.776C7.31654 8.93082 7.34863 9.11207 7.34863 9.31975ZM6.1875 6.61799C6.1875 6.39143 6.13841 6.20074 6.04023 6.04592C5.94583 5.8911 5.82122 5.7665 5.66641 5.67209C5.51536 5.57392 5.34355 5.50406 5.15098 5.46252C4.96217 5.42099 4.77148 5.40022 4.57891 5.40022C4.44674 5.40022 4.31458 5.40777 4.18242 5.42288C4.05404 5.4342 3.92565 5.45497 3.79727 5.48518V7.71116C3.9332 7.74137 4.06914 7.75836 4.20508 7.76213C4.34479 7.76591 4.48073 7.7678 4.61289 7.7678C4.81302 7.7678 5.00749 7.75269 5.19629 7.72249C5.38509 7.6885 5.55312 7.62808 5.70039 7.54124C5.84766 7.45439 5.96471 7.33733 6.05156 7.19006C6.14219 7.03902 6.1875 6.84833 6.1875 6.61799ZM6.36309 9.38206C6.36309 9.13284 6.30833 8.92515 6.19883 8.75901C6.08932 8.58909 5.94772 8.45315 5.77402 8.3512C5.6041 8.24924 5.41152 8.1775 5.19629 8.13596C4.98105 8.09065 4.76771 8.06799 4.55625 8.06799C4.43542 8.06799 4.3127 8.06988 4.18809 8.07366C4.06348 8.07366 3.9332 8.0831 3.79727 8.10198V10.4809C3.96341 10.5186 4.12767 10.5489 4.29004 10.5715C4.45241 10.5904 4.61855 10.5998 4.78848 10.5998C4.98105 10.5998 5.16986 10.5791 5.35488 10.5375C5.54368 10.4922 5.71172 10.4224 5.85898 10.328C6.01003 10.2298 6.13086 10.1033 6.22148 9.94846C6.31589 9.79364 6.36309 9.60484 6.36309 9.38206ZM13.8963 5.26428C13.7755 5.28316 13.6697 5.31715 13.5791 5.36624C13.4885 5.41532 13.4092 5.47574 13.3412 5.54749C13.2732 5.61923 13.2147 5.7023 13.1656 5.7967C13.1165 5.88733 13.0693 5.98739 13.024 6.0969L11.0076 11.0416H10.8547L8.68535 6.04026C8.63249 5.91943 8.58151 5.8137 8.53242 5.72307C8.48333 5.63245 8.4248 5.55504 8.35684 5.49084C8.29264 5.42665 8.21335 5.37756 8.11895 5.34358C8.02454 5.30582 7.90749 5.27939 7.76777 5.26428V5.11135H10.124V5.26428C10.0636 5.26806 9.99564 5.27561 9.92012 5.28694C9.84837 5.29827 9.77852 5.31903 9.71055 5.34924C9.64635 5.37568 9.5916 5.41532 9.54629 5.46819C9.50475 5.51728 9.48398 5.58336 9.48398 5.66643C9.48398 5.77216 9.50286 5.876 9.54063 5.97795C9.57839 6.07991 9.62559 6.19696 9.68223 6.32913L11.1549 9.71624L12.5256 6.35178C12.5445 6.31025 12.5652 6.26116 12.5879 6.20452C12.6105 6.14788 12.6313 6.08935 12.6502 6.02893C12.6691 5.96474 12.6861 5.90432 12.7012 5.84768C12.7163 5.78726 12.7238 5.7344 12.7238 5.68909C12.7238 5.61357 12.7012 5.55126 12.6559 5.50217C12.6143 5.45308 12.5615 5.41344 12.4973 5.38323C12.4368 5.34924 12.3708 5.3247 12.299 5.30959C12.2273 5.29071 12.1631 5.27561 12.1064 5.26428V5.11135H13.8963V5.26428Z" fill="white"/>
</g>
<defs>
<clipPath id="clip0_49_7">
<rect width="16" height="16" fill="white"/>
</clipPath>
</defs>
</svg>
