<svg width="16" height="16" viewBox="0 0 16 16" fill="none" xmlns="http://www.w3.org/2000/svg">
<rect x="1" y="1" width="14" height="14" fill="#0047FF"/>
<rect x="2" y="2" width="12" height="12" fill="#DAE2FF"/>
<path d="M2.3732 5.35522L2.39078 4.99487H4.3793C5.41495 4.99487 6.07632 5.29004 6.36343 5.88037C6.45132 6.06201 6.49527 6.24438 6.49527 6.42749C6.49527 6.6106 6.46158 6.77319 6.3942 6.91528C6.32681 7.05591 6.23746 7.17896 6.12613 7.28442C5.90201 7.49976 5.64053 7.65137 5.34171 7.73926C5.89395 7.86377 6.28653 8.15601 6.51944 8.61597C6.64688 8.87231 6.7106 9.125 6.7106 9.37402C6.7106 9.85889 6.57584 10.2229 6.3063 10.4661C5.94742 10.7898 5.28824 10.9648 4.32877 10.9912C4.16617 10.9956 3.96402 10.9978 3.72232 10.9978H2.44351V10.6462H2.71378C2.86758 10.6462 2.96866 10.6309 3.017 10.6001C3.0668 10.5693 3.09171 10.4976 3.09171 10.3848V5.67822C3.09171 5.5083 3.03604 5.40942 2.92471 5.38159C2.8588 5.36401 2.75845 5.35522 2.62369 5.35522H2.3732ZM3.80362 7.90186L3.8212 10.3145C3.8212 10.4375 3.85928 10.5166 3.93546 10.5518C4.01163 10.5854 4.15298 10.6023 4.35953 10.6023C4.56607 10.6023 4.74112 10.5884 4.88467 10.5605C5.02969 10.5312 5.15128 10.4939 5.24942 10.4485C5.34756 10.4016 5.43399 10.3445 5.5087 10.2771C5.5834 10.2083 5.642 10.1394 5.68448 10.0706C5.72842 10.0002 5.76358 9.92334 5.78995 9.83984C5.83389 9.70068 5.85587 9.54688 5.85587 9.37842C5.85587 9.20996 5.83096 9.05396 5.78116 8.9104C5.73135 8.76538 5.66544 8.64307 5.5834 8.54346C5.50137 8.44238 5.4025 8.35303 5.28677 8.27539C5.17252 8.19775 5.0546 8.13623 4.93301 8.09082C4.8129 8.04395 4.68326 8.00586 4.5441 7.97656C4.30826 7.92676 4.06143 7.90186 3.80362 7.90186ZM4.09805 5.39038C3.91348 5.39038 3.8212 5.45923 3.8212 5.59692V7.64038H4.7023C4.9982 7.64038 5.23477 7.51953 5.41202 7.27783C5.57608 7.05518 5.65811 6.82227 5.65811 6.5791C5.65811 6.16162 5.44644 5.83276 5.0231 5.59253C4.78433 5.45776 4.47598 5.39038 4.09805 5.39038ZM7.20718 5.35522V4.99487H9.46597L9.45718 5.35522H8.98038C8.89981 5.35522 8.84341 5.36255 8.81119 5.3772C8.77896 5.39038 8.76285 5.42773 8.76285 5.48926C8.76285 5.55078 8.80533 5.68628 8.89029 5.89575L10.5624 10.053L12.4543 5.70679C12.4836 5.62622 12.4982 5.56763 12.4982 5.53101C12.4982 5.49292 12.4872 5.46143 12.4652 5.43652C12.4447 5.41016 12.411 5.39185 12.3642 5.38159C12.2939 5.36401 12.1913 5.35522 12.0565 5.35522H11.7687L11.7511 4.99487H13.5793L13.5595 5.35522H13.3002C13.1537 5.35522 13.0468 5.4021 12.9794 5.49585C12.9135 5.59106 12.8344 5.74414 12.7421 5.95508C12.6513 6.16602 12.5985 6.28687 12.5839 6.31763C12.5619 6.37036 12.5216 6.46338 12.463 6.59668L10.446 11.1318H10.2943L8.20474 6.05615C8.08902 5.77783 8.00626 5.60059 7.95645 5.52441C7.90811 5.44678 7.85098 5.39917 7.78506 5.38159C7.72061 5.36401 7.63272 5.35522 7.52139 5.35522H7.20718Z" fill="black"/>
</svg>
