<svg width="16" height="16" viewBox="0 0 16 16" fill="none" xmlns="http://www.w3.org/2000/svg">
<path d="M1.5 7.99997C1.5 4.5 4.5 1.5 8 1.5C11.5 1.5 14.5 4.49994 14.5 7.99997C14.5 11.5 11.5 14.5 8 14.5C4.5 14.5 1.5 11.4999 1.5 7.99997Z" fill="#FFEFD8" stroke="#FFA217"/>
<path d="M8.46688 4H9.86571V5H8.71995C8.21995 5 8.21995 5.68604 8.21995 6V6.5H9.86571V7.5H8.21995V12H7.21995V7.5H6.13428V6.5H7.21995V5.5C7.21995 4.76161 7.79034 4 8.46688 4Z" fill="#FFA217"/>
<path fill-rule="evenodd" clip-rule="evenodd" d="M2.62071 3.2655V2.5155C2.62071 1.7655 2.80769 1.7655 3.40204 1.7655C3.99638 1.7655 4.18337 1.7655 4.18337 2.5155V3.2655H2.62071ZM3.40204 1.0155C1.74986 1.0155 1.83938 2.025 1.83938 3.2655H1.05804V7.0155H5.74603V3.2655C5.43487 3.2655 5.17443 3.2655 4.9647 3.2655C4.9647 2.025 5.05421 1.0155 3.40204 1.0155Z" fill="#EF5600"/>
</svg>
