<svg width="16" height="16" viewBox="0 0 16 16" fill="none" xmlns="http://www.w3.org/2000/svg">
<path d="M1.5 7.99997C1.5 4.5 4.5 1.5 8 1.5C11.5 1.5 14.5 4.49994 14.5 7.99997C14.5 11.5 11.5 14.5 8 14.5C4.5 14.5 1.5 11.4999 1.5 7.99997Z" fill="#FFEFD8" stroke="#FFA217"/>
<path d="M8.46688 4H9.86571V5H8.71995C8.21995 5 8.21995 5.68604 8.21995 6V6.5H9.86571V7.5H8.21995V12H7.21995V7.5H6.13428V6.5H7.21995V5.5C7.21995 4.76161 7.79034 4 8.46688 4Z" fill="#FFA217"/>
<path fill-rule="evenodd" clip-rule="evenodd" d="M2.56266 3.22906V2.47906C2.56266 1.72906 2.74965 1.72906 3.34399 1.72906C3.93834 1.72906 4.12533 1.72906 4.12533 2.47906V3.22906H2.56266ZM3.34399 0.979065C1.69182 0.979065 1.78133 1.98856 1.78133 3.22906H1V6.97906H5.68799V3.22906C5.37683 3.22906 5.11638 3.22906 4.90666 3.22906C4.90666 1.98856 4.99617 0.979065 3.34399 0.979065Z" fill="#EF5600"/>
<path fill-rule="evenodd" clip-rule="evenodd" d="M3.56714 15L1 12L3.56714 9L6.13428 12L3.56714 15ZM2.28357 12L3.56714 13.8L4.85071 12L3.56714 10.2L2.28357 12Z" fill="#909090"/>
<path d="M3.56714 13.8L2.28357 12L3.56714 10.2L4.85071 12L3.56714 13.8Z" fill="#454545"/>
</svg>
