<svg width="16" height="16" viewBox="0 0 16 16" fill="none" xmlns="http://www.w3.org/2000/svg">
<path d="M1.5 7.99997C1.5 4.5 4.5 1.5 8 1.5C11.5 1.5 14.5 4.49994 14.5 7.99997C14.5 11.5 11.5 14.5 8 14.5C4.5 14.5 1.5 11.4999 1.5 7.99997Z" fill="#FFEFD8" stroke="#FFA217"/>
<path d="M8.46688 4H9.86571V5H8.71995C8.21995 5 8.21995 5.68604 8.21995 6V6.5H9.86571V7.5H8.21995V12H7.21995V7.5H6.13428V6.5H7.21995V5.5C7.21995 4.76161 7.79034 4 8.46688 4Z" fill="#FFA217"/>
<path fill-rule="evenodd" clip-rule="evenodd" d="M3.56714 15L1 12L3.56714 9L6.13428 12L3.56714 15ZM2.28357 12L3.56714 13.8L4.85071 12L3.56714 10.2L2.28357 12Z" fill="#919191"/>
<path d="M3.56714 13.8L2.28357 12L3.56714 10.2L4.85071 12L3.56714 13.8Z" fill="#454545"/>
</svg>
