<svg width="16" height="16" viewBox="0 0 16 16" fill="none" xmlns="http://www.w3.org/2000/svg">
<path d="M1.5 7.99997C1.5 4.5 4.5 1.5 8 1.5C11.5 1.5 14.5 4.49994 14.5 7.99997C14.5 11.5 11.5 14.5 8 14.5C4.5 14.5 1.5 11.4999 1.5 7.99997Z" fill="#FFE1CC" stroke="#A55F2D"/>
<path d="M10.0657 5.245C9.25361 5.245 8.636 5.64667 8.29593 6.31491C8.00368 5.64194 7.40552 5.245 6.6071 5.245C5.84915 5.245 5.28147 5.60882 4.96189 6.24815V5.37118H4V10.755H4.99869V7.58988C4.99869 6.68032 5.5138 6.10724 6.32852 6.10724C7.0749 6.10724 7.50591 6.61723 7.50591 7.43741V10.755H8.49409V7.58988C8.49409 6.68032 9.01971 6.10724 9.82392 6.10724C10.5756 6.10724 11.0013 6.61723 11.0013 7.43741V10.755H12V7.35855C12 6.07044 11.2168 5.245 10.0657 5.245Z" fill="#A55F2D"/>
</svg>
