<svg width="16" height="16" viewBox="0 0 16 16" fill="none" xmlns="http://www.w3.org/2000/svg">
<path d="M1.5 7.99997C1.5 4.5 4.5 1.5 8 1.5C11.5 1.5 14.5 4.49994 14.5 7.99997C14.5 11.5 11.5 14.5 8 14.5C4.5 14.5 1.5 11.4999 1.5 7.99997Z" fill="#FFE1CC" stroke="#A55F2D"/>
<path d="M10.0657 5.245C9.25361 5.245 8.636 5.64667 8.29593 6.31491C8.00368 5.64194 7.40552 5.245 6.6071 5.245C5.84915 5.245 5.28147 5.60882 4.96189 6.24815V5.37118H4V10.755H4.99869V7.58988C4.99869 6.68032 5.5138 6.10724 6.32852 6.10724C7.0749 6.10724 7.50591 6.61723 7.50591 7.43741V10.755H8.49409V7.58988C8.49409 6.68032 9.01971 6.10724 9.82392 6.10724C10.5756 6.10724 11.0013 6.61723 11.0013 7.43741V10.755H12V7.35855C12 6.07044 11.2168 5.245 10.0657 5.245Z" fill="#A55F2D"/>
<path fill-rule="evenodd" clip-rule="evenodd" d="M2.56266 3.22906V2.47906C2.56266 1.72906 2.74965 1.72906 3.34399 1.72906C3.93834 1.72906 4.12533 1.72906 4.12533 2.47906V3.22906H2.56266ZM3.34399 0.979065C1.69182 0.979065 1.78133 1.98856 1.78133 3.22906H1V6.97906H5.68799V3.22906C5.37683 3.22906 5.11638 3.22906 4.90666 3.22906C4.90666 1.98856 4.99617 0.979065 3.34399 0.979065Z" fill="#EF5600"/>
</svg>
