<svg width="16" height="16" viewBox="0 0 16 16" fill="none" xmlns="http://www.w3.org/2000/svg">
<path fill-rule="evenodd" clip-rule="evenodd" d="M2.78709 4.36961C2.48287 4.76924 2.22789 5.20781 2.03091 5.67626L2.87046 7.0943C3.20114 7.65283 3.20114 8.34718 2.87046 8.9057L2.03091 10.3237C2.2279 10.7922 2.48287 11.2308 2.7871 11.6304L4.43315 11.6124C5.08219 11.6053 5.68351 11.9524 6.00187 12.5181L6.80953 13.953C7.05647 13.984 7.30846 14 7.56462 14C7.82074 14 8.07268 13.984 8.31958 13.9531L9.12725 12.5181C9.44561 11.9524 10.0469 11.6053 10.6959 11.6124L12.3421 11.6304C12.6463 11.2308 12.9013 10.7923 13.0982 10.3239L12.2586 8.9057C11.9279 8.34718 11.9279 7.65283 12.2586 7.0943L13.0982 5.67613C12.9013 5.20773 12.6463 4.76921 12.3421 4.36961L10.6959 4.38764C10.0469 4.39475 9.44561 4.04758 9.12725 3.48194L8.31958 2.04693C8.07268 2.01599 7.82074 2 7.56462 2C7.30846 2 7.05648 2.016 6.80953 2.04695L6.00187 3.48194C5.68351 4.04758 5.08219 4.39475 4.43315 4.38764L2.78709 4.36961ZM10.2155 8.00001C10.2155 9.46412 9.02865 10.651 7.56454 10.651C6.10044 10.651 4.91354 9.46412 4.91354 8.00001C4.91354 6.53591 6.10044 5.34902 7.56454 5.34902C9.02865 5.34902 10.2155 6.53591 10.2155 8.00001ZM4.4441 3.3877C4.72806 3.39081 4.99114 3.23892 5.13042 2.99146L5.99871 1.44875C6.10968 1.25159 6.30064 1.1101 6.52441 1.07676C6.86381 1.0262 7.21116 1 7.56462 1C7.91804 1 8.26534 1.02619 8.60468 1.07674C8.82846 1.11007 9.01943 1.25157 9.1304 1.44873L9.99874 2.99146C10.1379 3.23892 10.401 3.39081 10.685 3.3877L12.4543 3.36832C12.6801 3.36585 12.8977 3.46012 13.0386 3.63661C13.4704 4.17766 13.8237 4.78416 14.0812 5.43884C14.1639 5.6491 14.1368 5.88489 14.0217 6.07931L13.1191 7.60376C12.9744 7.84811 12.9744 8.15189 13.1191 8.39625L14.0217 9.92069C14.1368 10.1151 14.1639 10.3509 14.0812 10.5612C13.8237 11.2158 13.4704 11.8223 13.0386 12.3634C12.8977 12.5399 12.6801 12.6342 12.4543 12.6317L10.685 12.6123C10.401 12.6092 10.1379 12.7611 9.99874 13.0085L9.1304 14.5513C9.01943 14.7484 8.82846 14.8899 8.60468 14.9233C8.26534 14.9738 7.91804 15 7.56462 15C7.21116 15 6.86381 14.9738 6.52441 14.9232C6.30064 14.8899 6.10968 14.7484 5.99871 14.5512L5.13042 13.0085C4.99114 12.7611 4.72806 12.6092 4.4441 12.6123L2.67494 12.6317C2.44914 12.6342 2.2315 12.5399 2.09064 12.3634C1.65876 11.8223 1.30543 11.2158 1.04792 10.561C0.965228 10.3508 0.992377 10.115 1.10749 9.92057L2.00996 8.39625C2.15464 8.15189 2.15464 7.84811 2.00996 7.60376L1.10749 6.07944C0.992377 5.88502 0.965228 5.64924 1.04792 5.43898C1.30543 4.78425 1.65876 4.1777 2.09063 3.63661C2.2315 3.46012 2.44914 3.36585 2.67494 3.36832L4.4441 3.3877ZM9.21554 8.00001C9.21554 8.91183 8.47636 9.65101 7.56454 9.65101C6.65272 9.65101 5.91354 8.91183 5.91354 8.00001C5.91354 7.08819 6.65272 6.34902 7.56454 6.34902C8.47636 6.34902 9.21554 7.08819 9.21554 8.00001Z" fill="#707278"/>
<path fill-rule="evenodd" clip-rule="evenodd" d="M2.78709 4.36961C2.48287 4.76924 2.22789 5.20781 2.03091 5.67626L2.87046 7.0943C3.20114 7.65283 3.20114 8.34718 2.87046 8.9057L2.03091 10.3237C2.2279 10.7922 2.48287 11.2308 2.7871 11.6304L4.43315 11.6124C5.08219 11.6053 5.68351 11.9524 6.00187 12.5181L6.80953 13.953C7.05647 13.984 7.30846 14 7.56462 14C7.82074 14 8.07268 13.984 8.31958 13.9531L9.12725 12.5181C9.44561 11.9524 10.0469 11.6053 10.6959 11.6124L12.3421 11.6304C12.6463 11.2308 12.9013 10.7923 13.0982 10.3239L12.2586 8.9057C11.9279 8.34718 11.9279 7.65283 12.2586 7.0943L13.0982 5.67613C12.9013 5.20773 12.6463 4.76921 12.3421 4.36961L10.6959 4.38764C10.0469 4.39475 9.44561 4.04758 9.12725 3.48194L8.31958 2.04693C8.07268 2.01599 7.82074 2 7.56462 2C7.30846 2 7.05648 2.016 6.80953 2.04695L6.00187 3.48194C5.68351 4.04758 5.08219 4.39475 4.43315 4.38764L2.78709 4.36961ZM7.56454 10.651C9.02865 10.651 10.2155 9.46412 10.2155 8.00001C10.2155 6.53591 9.02865 5.34902 7.56454 5.34902C6.10044 5.34902 4.91354 6.53591 4.91354 8.00001C4.91354 9.46412 6.10044 10.651 7.56454 10.651Z" fill="#ECECF0"/>
</svg>
